# xmcd
#
# Track frame offsets:
#	150
#	23664
#	40637
#	61313
#	84698
#	101677
#	119064
#	138315
#	158662
#	174466
#
# Disc length: 2689 seconds
#
# Revision: 4
# Processed by: cddbd v1.5.2PL0 Copyright (c) Steve Scherf et al.
# Submitted via: EasyCDDAExtractor 10.0.3.1
#
DISCID=7c0a7f0a
DTITLE=A-Mei Chang - Fever
DYEAR=2002
DGENRE=Pop
TTITLE0=Fa Shao
TTITLE1=Hen Jue Se
TTITLE2=Zhi Dao
TTITLE3=Xia Yi Ge Ren
TTITLE4=54321
TTITLE5=Gen Wo Yi Qi Feng
TTITLE6=Bie Qu Da Rao Ta De Xin
TTITLE7=Ting Jian Le Ma
TTITLE8=Yes or No
TTITLE9=Katsu
EXTD=YEAR: 2002
EXTT0=
EXTT1=
EXTT2=
EXTT3=
EXTT4=
EXTT5=
EXTT6=
EXTT7=
EXTT8=
EXTT9=
PLAYORDER=
